<svg xmlns="http://www.w3.org/2000/svg" viewBox="0 0 360 360" width="360" height="360">
  <g
    fill="none"
    stroke="rgb(200 208 216)"
    stroke-opacity="0.032"
    stroke-width="1"
    stroke-linecap="round"
    stroke-linejoin="round"
  >
    <g transform="translate(28 32) rotate(-8)">
      <path
        d="M-8,-5h16q2 0 2 2v9q0 2-2 2h-10l-3 4v-4h-3q-2 0-2-2v-9q0-2 2-2"
      />
    </g>
    <g transform="translate(74 54) rotate(14)">
      <path d="M0,7 C-5,2.5 -7,-1.5 -3.5,-3.5 C-1,-5 0,-2 0,0 C0,-2 1,-5 3.5,-3.5 C7,-1.5 5,2.5 0,7" />
    </g>
    <g transform="translate(118 28) rotate(-12)">
      <path d="M0,-5l1.2,3.8 4,-1.2-2.4 2.8 2.4 2.8-4-1.2L0,5l-1.2-3.8-4 1.2 2.4-2.8-2.4-2.8 4 1.2z" />
    </g>
    <g transform="translate(172 44) rotate(22)">
      <path
        d="M3,-6 A6.5 6.5 0 1 1 3,6 A5 5 0 1 0 3,-6"
      />
    </g>
    <g transform="translate(226 30) rotate(-18)">
      <path d="M-4,0h8v7a2 2 0 0 1-2 2h-4a2 2 0 0 1-2-2z" />
      <path d="M-4,0q4-3 8 0" />
      <path d="M-2,-2q-.5-2-1.5-3.5M2,-2q.5-2 1.5-3.5" />
    </g>
    <g transform="translate(278 48) rotate(6)">
      <path d="M-8,-3h16v10h-16zM-8,-3l8,6 8-6" />
    </g>
    <g transform="translate(320 34) rotate(-25)">
      <rect x="-7" y="-5" width="14" height="10" rx="2" />
      <circle cx="0" cy="0" r="2.5" />
      <circle cx="-4.5" cy="-6" r="0.6" />
    </g>
    <g transform="translate(42 98) rotate(10)">
      <circle cy="-1" r="4.5" />
      <circle cx="-1.6" cy="-2" r="0.45" />
      <circle cx="1.6" cy="-2" r="0.45" />
      <path d="M-2.5,2q2.5 2.5 5 0" />
    </g>
    <g transform="translate(96 114) rotate(-20)">
      <circle r="5" />
      <circle r="2.8" />
    </g>
    <g transform="translate(154 96) rotate(8)">
      <path d="M0,-8l2,6 6,0.5-4.5 4 1.5 6-5.5-3-5.5 3 1.5-6-4.5-4 6-0.5z" />
    </g>
    <g transform="translate(210 108) rotate(-6)">
      <path d="M-6,0h12l-2 8h-8zM0,8v4" />
    </g>
    <g transform="translate(268 92) rotate(18)">
      <path
        d="M-8,-1q4-5 8-1 4-4 8 1 2 4-8 9-10-5-8-9"
      />
      <path d="M0,8v5" />
    </g>
    <g transform="translate(318 104) rotate(-14)">
      <path d="M-1,-8 L3,2 L-5,2 Z" />
      <path d="M0,2 L0,5" />
    </g>
    <g transform="translate(22 152) rotate(25)">
      <rect x="-6" y="-8" width="12" height="16" rx="2" />
      <path d="M-3,-4h6M-3,0h6M-3,4h4" />
    </g>
    <g transform="translate(82 168) rotate(-10)">
      <path d="M-9,-3 L9,-3 L5,6 L-5,6 Z" />
      <path d="M-7,-3 L0,2 L7,-3" />
    </g>
    <g transform="translate(140 148) rotate(12)">
      <circle r="8" />
      <ellipse cy="-1" rx="10" ry="2" />
    </g>
    <g transform="translate(198 160) rotate(-22)">
      <path d="M-6,-4 L0,5 L6,-4 M-4,-2 L4,-2" />
    </g>
    <g transform="translate(252 146) rotate(7)">
      <circle r="5" />
      <path d="M3,3 L7,7" />
      <circle cx="8" cy="8" r="1.2" />
    </g>
    <g transform="translate(308 156) rotate(-5)">
      <path d="M-6,2 L-2,-4 L2,2 M0,-4 L0,5" />
      <path d="M-5,5 Q0,7 5,5" />
    </g>
    <g transform="translate(48 206) rotate(-15)">
      <path d="M-8,-2 L8,-2 L6,6 L-6,6 Z" />
      <path d="M-6,-2 L0,3 L6,-2" />
    </g>
    <g transform="translate(110 220) rotate(20)">
      <rect x="-7" y="-5" width="14" height="8" rx="1" />
      <path d="M-5,-7 L-3,-5 M3,-5 L5,-7" />
    </g>
    <g transform="translate(176 208) rotate(-8)">
      <path d="M0,-6 L-6,6 L6,6 Z" />
      <circle cx="-2" cy="2" r="0.5" />
      <circle cx="2" cy="2" r="0.5" />
      <circle cx="0" cy="4" r="0.5" />
    </g>
    <g transform="translate(232 218) rotate(11)">
      <circle r="6" />
      <path d="M0,-2 L0,2 M-2,0 L2,0" />
      <path d="M4,4 L5.5,5.5" />
    </g>
    <g transform="translate(292 204) rotate(-18)">
      <path d="M-5,-3 L5,-3 L3,3 L-3,3 Z M-1,-3 L-1,-6 M1,-3 L1,-6" />
    </g>
    <g transform="translate(336 222) rotate(6)">
      <path d="M-8,0 Q0,-8 8,0 Q0,8 -8,0" />
      <path d="M0,2 L0,8" />
    </g>
    <g transform="translate(30 268) rotate(9)">
      <path d="M-7,-2h14v2h-9v4h-5zM5,-2v6" />
    </g>
    <g transform="translate(88 282) rotate(-12)">
      <path d="M-8,4 Q-4,-6 0,-2 4,-6 8,4" />
      <path d="M0,-2 L0,8" />
    </g>
    <g transform="translate(144 264) rotate(16)">
      <path d="M-6,-3 Q0,5 6,-3" />
      <path d="M-4,-1 L4,-1" />
      <path d="M0,0 L0,9" />
    </g>
    <g transform="translate(206 276) rotate(-7)">
      <ellipse rx="10" ry="3" cy="4" />
      <path d="M-4,-2 Q0,-8 4,-2" />
    </g>
    <g transform="translate(262 262) rotate(24)">
      <path d="M-5,-4 L0,6 L5,-4 M-3,-1h6" />
    </g>
    <g transform="translate(320 278) rotate(-11)">
      <path d="M0,-7 L1,1 L7,2 L1,3 L0,9 L-1,3 L-7,2 L-1,1 Z" />
    </g>
    <g transform="translate(56 318) rotate(-6)">
      <rect x="-8" y="-4" width="16" height="9" rx="2" />
      <path d="M-6,5 L0,8 L6,5" />
    </g>
    <g transform="translate(126 308) rotate(14)">
      <path d="M2,-6 L2,5 M2,-6 L6,-3 L2,-1" />
      <path d="M2,5 Q5,6 6,7" />
    </g>
    <g transform="translate(182 322) rotate(-20)">
      <path d="M-6,0 L6,0 M0,-6 L0,6 M-4,-4 L4,4 M4,-4 L-4,4" />
    </g>
    <g transform="translate(250 314) rotate(5)">
      <path d="M-1,-7 L2,-1 L-3,-1 L1,3 L-2,3 L2,7" />
    </g>
    <g transform="translate(308 324) rotate(-16)">
      <circle cx="-3" cy="-1" r="2" />
      <path d="M-1,-1 L6,4 M6,4 L4,6 M6,4 L8,6" />
    </g>
    <g transform="translate(352 296) rotate(8)">
      <path d="M-6,-4h12v8h-12zM-6,-4l6 4 6-4" />
    </g>
    <g transform="translate(14 118) rotate(-4)">
      <circle r="1.2" />
    </g>
    <g transform="translate(190 76) rotate(19)">
      <circle r="0.9" />
    </g>
    <g transform="translate(228 168) rotate(-9)">
      <path d="M0,0l1.4,1.4M1.8,0L0,1.8M0,1.8l-1.4,1.4" />
    </g>
    <g transform="translate(340 172) rotate(3)">
      <circle r="1" />
    </g>
    <g transform="translate(104 246) rotate(-21)">
      <circle r="0.85" />
    </g>
    <g transform="translate(158 328) rotate(11)">
      <circle r="1.1" />
    </g>
    <g transform="translate(274 336) rotate(-7)">
      <circle r="0.95" />
    </g>
    <g transform="translate(218 58) rotate(17)">
      <path d="M-4,-2h8v5h-8zM-2,3h4" />
    </g>
    <g transform="translate(54 172) rotate(-13)">
      <path d="M0,-5 L4,3 L-4,3 Z" />
    </g>
    <g transform="translate(124 182) rotate(8)">
      <path d="M-5,-1 H5M-5,2 H5M-5,5 H2" />
    </g>
    <g transform="translate(286 126) rotate(-19)">
      <path d="M-5,-3 H5 V4 H-5 Z M-2,4 V7" />
    </g>
    <g transform="translate(348 86) rotate(4)">
      <path d="M-6,-1 Q0,-8 6,-1 M-6,2 H6 M-4,5 H4" />
    </g>
    <g transform="translate(8 236) rotate(-2)">
      <circle r="1.3" />
    </g>
    <g transform="translate(196 264) rotate(13)">
      <path d="M-3,-3 L3,3 M3,-3 L-3,3" />
    </g>
    <g transform="translate(78 316) rotate(-17)">
      <path d="M0,-4v8M-4,0h8" />
    </g>
    <g transform="translate(334 128) rotate(9)">
      <path d="M-5,0 H5 M0,-5 V5" />
    </g>
    <g transform="translate(24 222) rotate(-24)">
      <circle r="1.15" />
    </g>
    <g transform="translate(144 72) rotate(2)">
      <path d="M0,0l2,0.2 0.2,2-1.8,1-1-1.8 1.6-1.4z" />
    </g>
    <g transform="translate(296 286) rotate(-3)">
      <circle r="1" />
    </g>
    <g transform="translate(350 228) rotate(15)">
      <circle r="0.9" />
    </g>
  </g>
</svg>
